{"glyphs":{"A":{"ha":833,"x_min":0,"x_max":0,"o":"m 464 296 b 481 513 464 368 481 447 b 361 644 481 589 458 644 b 132 550 254 644 132 613 b 194 471 132 475 163 471 b 332 569 246 471 236 569 b 364 506 357 569 364 544 l 363 482 b 106 319 294 456 106 457 b 231 210 106 235 182 210 b 336 242 275 210 310 229 l 336 239 b 385 199 336 208 358 199 b 492 246 431 199 492 228 b 464 296 492 265 464 257 z m 1179 510 b 1301 411 1225 510 1271 411 b 1347 493 1332 411 1347 472 b 1185 579 1347 529 1282 579 b 1014 390 1022 579 1014 429 b 1172 190 1014 324 1042 190 b 1344 313 1329 190 1344 283 b 1326 339 1344 321 1342 339 b 1192 275 1311 339 1229 275 b 1115 382 1154 275 1115 319 b 1179 510 1115 444 1133 510 z m 2194 563 b 2033 428 2110 563 2036 474 l 2036 413 b 2022 382 2026 408 2022 397 b 2158 211 2022 325 2085 211 b 2314 390 2265 211 2314 301 b 2194 563 2314 475 2271 558 z m 2157 297 b 2061 360 2094 301 2071 331 b 2147 486 2083 400 2119 488 b 2199 372 2179 483 2199 425 b 2157 297 2199 332 2186 296 z m 257 274 b 218 315 233 274 218 283 b 296 401 218 368 254 401 b 354 403 315 401 335 403 b 342 313 350 374 344 342 b 257 274 313 293 281 274 z m 706 -399 b 738 32 800 -399 661 32 b 767 -25 761 32 767 18 b 794 -51 767 -44 783 -51 b 851 26 810 -51 851 -22 b 607 -33 851 121 607 219 b 606 -340 607 -183 635 -340 b 706 -399 579 -340 642 -399 z m 1226 44 b 1099 113 1226 74 1175 113 b 964 -36 971 113 964 -6 b 1089 -193 964 -89 986 -193 b 1128 -190 1103 -193 1117 -192 b 1061 -287 1119 -243 1103 -287 b 960 -200 1013 -287 978 -200 b 915 -261 936 -200 915 -235 b 1056 -375 915 -290 947 -375 b 1218 -126 1194 -375 1211 -250 b 1224 -97 1222 -114 1224 -104 b 1221 -83 1224 -93 1224 -87 b 1226 -15 1222 -60 1224 -36 b 1222 22 1228 0 1229 14 b 1226 44 1225 31 1226 39 z m 1104 -126 b 1043 -43 1074 -126 1043 -92 b 1094 58 1043 7 1058 58 b 1149 18 1113 58 1131 38 b 1111 -6 1126 11 1111 3 b 1136 -50 1111 -29 1138 -29 b 1133 -118 1135 -69 1135 -93 b 1104 -126 1122 -122 1113 -126 z m 365 -442 b 332 -390 365 -412 367 -390 b 222 -444 293 -390 222 -428 b 258 -496 222 -460 258 -469 b 211 -794 261 -594 292 -794 b 108 -699 165 -794 139 -699 b 67 -776 78 -699 67 -756 b 214 -894 67 -812 117 -894 b 372 -751 300 -894 372 -826 b 365 -442 372 -685 364 -558 z m 836 -479 b 783 -499 769 -479 783 -483 b 628 -664 783 -549 628 -653 l 622 -711 l 628 -712 b 694 -700 646 -703 672 -700 b 836 -479 768 -646 935 -479 z m 1690 -937 b 1607 -694 1690 -886 1735 -694 b 1508 -769 1564 -694 1526 -728 l 1511 -583 b 1476 -531 1511 -553 1513 -531 b 1363 -586 1436 -531 1363 -569 b 1400 -639 1363 -601 1400 -612 b 1397 -869 1400 -729 1397 -807 b 1429 -1031 1397 -971 1388 -1031 b 1533 -985 1483 -1031 1533 -1007 b 1508 -876 1533 -965 1513 -971 b 1563 -785 1513 -839 1532 -785 b 1588 -825 1574 -785 1588 -789 b 1619 -1036 1588 -939 1565 -1036 b 1722 -997 1674 -1036 1722 -1014 b 1690 -937 1722 -986 1690 -987 z m 897 -862 b 714 -700 793 -862 786 -700 l 694 -700 b 664 -717 679 -711 669 -717 l 628 -712 b 603 -754 613 -719 603 -733 l 615 -767 b 663 -746 626 -757 636 -746 b 832 -937 701 -746 754 -937 b 918 -869 890 -937 918 -878 b 897 -862 918 -861 906 -862 z m 629 -781 l 615 -767 b 600 -781 611 -772 607 -776 z m 1507 -974 b 1504 -950 1503 -974 1503 -964 z "},"B":{"ha":833,"x_min":0,"x_max":0,"o":"m 635 17 b 822 229 667 17 822 54 b 643 479 822 383 588 479 b 722 694 667 479 722 622 b 357 918 722 840 650 918 b 50 868 63 918 50 925 b 161 746 50 767 161 846 l 161 428 b 133 172 154 344 161 172 b 63 17 56 172 63 101 z "},"C":{"ha":833,"x_min":0,"x_max":0,"o":""},"D":{"ha":833,"x_min":0,"x_max":0,"o":""},"E":{"ha":833,"x_min":0,"x_max":0,"o":""},"F":{"ha":833,"x_min":0,"x_max":0,"o":""},"G":{"ha":833,"x_min":0,"x_max":0,"o":""},"H":{"ha":833,"x_min":0,"x_max":0,"o":""},"I":{"ha":833,"x_min":0,"x_max":0,"o":"m 778 458 b 833 325 778 222 833 393 b 679 215 833 271 763 215 b 614 322 610 215 614 308 b 596 740 614 336 633 696 b 569 771 589 753 569 757 b 736 850 569 785 685 850 b 788 796 788 850 788 813 b 778 458 788 779 778 518 z m 88 699 b 92 328 88 676 56 328 b 124 335 101 328 114 335 b 144 289 132 335 144 328 b -8 207 144 221 1 207 b -86 286 -78 207 -86 253 b -100 708 -86 300 -57 708 b -136 760 -144 708 -136 736 b -56 814 -136 801 -76 814 b 88 699 -4 814 88 742 z "},"J":{"ha":833,"x_min":0,"x_max":0,"o":""},"K":{"ha":833,"x_min":0,"x_max":0,"o":""},"L":{"ha":833,"x_min":0,"x_max":0,"o":""},"M":{"ha":833,"x_min":0,"x_max":0,"o":""},"N":{"ha":833,"x_min":0,"x_max":0,"o":""},"O":{"ha":833,"x_min":0,"x_max":0,"o":""},"P":{"ha":833,"x_min":0,"x_max":0,"o":""},"Q":{"ha":833,"x_min":0,"x_max":0,"o":""},"R":{"ha":833,"x_min":0,"x_max":0,"o":""},"S":{"ha":833,"x_min":0,"x_max":0,"o":""},"T":{"ha":833,"x_min":0,"x_max":0,"o":""},"U":{"ha":833,"x_min":0,"x_max":0,"o":""},"V":{"ha":833,"x_min":0,"x_max":0,"o":""},"W":{"ha":833,"x_min":0,"x_max":0,"o":""},"X":{"ha":833,"x_min":0,"x_max":0,"o":""},"Y":{"ha":833,"x_min":0,"x_max":0,"o":""},"Z":{"ha":833,"x_min":0,"x_max":0,"o":"m 225 29 b 296 101 264 29 296 61 b 225 172 296 140 264 172 b 153 101 185 172 153 140 b 225 29 153 61 185 29 z m 453 29 b 524 101 492 29 524 61 b 453 172 524 140 492 172 b 381 101 413 172 381 140 b 453 29 381 61 413 29 z m 675 29 b 746 101 714 29 746 61 b 675 172 746 140 714 172 b 603 101 635 172 603 140 b 675 29 603 61 635 29 z "},"a":{"ha":667,"x_min":0,"x_max":0,"o":"m 592 147 b 608 471 592 261 608 365 b 340 660 608 599 476 657 b 47 499 196 663 47 603 b 307 451 47 347 307 407 b 299 535 307 489 304 517 b 399 388 361 515 401 463 b 28 161 88 388 28 306 b 189 -15 28 106 53 -15 b 379 74 282 -15 340 24 b 471 -15 388 21 413 -15 b 639 61 543 -15 639 35 b 592 147 639 89 592 85 z m 246 190 b 390 304 246 290 390 349 b 246 190 390 131 246 85 z "},"b":{"ha":714,"x_min":0,"x_max":0,"o":"m 496 607 b 307 556 418 607 357 586 b 351 793 328 664 351 772 b 281 903 351 856 356 903 b 17 789 199 903 17 824 b 92 682 17 756 92 733 b 94 167 110 356 110 192 b 69 104 85 150 90 129 b 171 -6 25 53 58 -6 b 289 24 239 -6 272 6 b 428 -6 326 6 372 -6 b 726 311 713 -6 726 243 b 496 607 726 469 668 607 z m 440 97 b 318 286 356 97 318 169 b 436 467 318 356 365 467 b 506 279 494 467 506 365 b 440 97 506 181 504 97 z "},"c":{"ha":711,"x_min":0,"x_max":0,"o":"m 360 672 b 639 506 526 672 639 569 b 560 365 639 471 611 365 b 349 522 460 365 428 522 b 257 292 269 522 257 401 b 369 153 257 186 306 153 b 603 242 436 153 513 242 b 632 196 629 242 632 210 b 336 -15 632 144 608 -15 b 36 313 113 -15 36 171 b 360 672 36 407 79 672 z "},"d":{"ha":676,"x_min":0,"x_max":0,"o":"m 596 353 b 606 774 596 449 606 739 b 539 876 606 831 608 876 b 335 771 463 876 335 801 b 403 669 335 739 403 719 l 401 533 b 265 561 363 550 315 561 b 1 265 68 561 1 389 b 246 -19 1 165 53 -19 b 424 29 328 -19 385 1 b 494 -22 438 -4 460 -22 b 676 97 596 -22 676 57 b 596 353 676 139 596 85 z m 311 132 b 233 253 257 132 233 161 b 326 433 233 338 225 433 b 399 393 368 433 388 415 b 400 171 397 306 397 231 b 311 132 375 149 346 132 z "},"e":{"ha":636,"x_min":0,"x_max":0,"o":"m 572 254 b 314 100 508 210 392 100 b 233 243 256 100 236 151 b 581 372 350 167 575 226 b 342 599 588 543 450 599 b 26 278 151 599 32 432 b 310 -12 21 115 100 -12 b 619 157 475 -12 615 61 b 572 254 621 207 621 288 z m 413 471 b 303 314 426 406 411 314 b 238 333 276 314 254 322 b 413 471 260 510 396 536 z "},"f":{"ha":581,"x_min":0,"x_max":0,"o":"m 490 564 b 569 715 544 564 569 604 b 61 607 569 1044 61 1147 b 92 -97 61 263 158 -97 b 253 -232 32 -97 106 -232 b 279 371 374 -232 315 86 b 469 367 344 358 401 271 b 392 500 497 406 531 500 b 267 482 356 500 307 494 b 342 814 247 667 251 814 b 392 676 444 814 392 776 b 490 564 392 632 422 564 z "},"g":{"ha":775,"x_min":0,"x_max":0,"o":"m 597 -92 b 226 -192 417 -92 374 -192 b 246 -71 122 -192 119 -71 b 368 -118 347 -71 340 -118 b 426 21 417 -118 426 -74 l 426 40 b 632 306 597 78 632 246 b 615 411 632 342 626 376 b 764 488 640 481 764 321 b 613 578 764 556 713 578 b 547 522 593 578 565 560 b 372 590 506 564 447 590 b 74 317 94 590 74 371 b 307 36 74 213 124 58 l 306 31 b -7 -165 208 51 -7 44 b 254 -399 -7 -287 90 -399 b 618 -321 531 -399 618 -203 b 660 -367 618 -347 589 -367 b 775 -237 753 -367 775 -282 b 597 -92 775 -197 743 -92 z m 368 511 b 432 314 428 511 432 396 b 372 133 432 217 432 133 b 288 324 288 133 288 211 b 368 511 288 388 294 511 z "},"h":{"ha":679,"x_min":0,"x_max":0,"o":"m 622 172 b 469 622 622 267 706 622 b 286 483 392 622 321 560 l 292 826 b 228 924 292 883 293 924 b 17 821 153 924 17 853 b 88 724 17 793 88 772 b 82 299 88 556 82 414 b 140 0 82 110 63 0 b 333 83 240 0 333 43 b 288 282 333 121 296 108 b 388 453 296 354 331 453 b 432 381 407 453 432 446 b 493 -11 432 169 392 -11 b 682 63 592 -11 682 31 b 622 172 682 82 622 79 z "},"i":{"ha":403,"x_min":0,"x_max":0,"o":"m 211 743 b 349 879 286 743 349 804 b 211 1017 349 954 286 1017 b 76 879 136 1017 76 954 b 211 743 76 804 136 743 z m 185 -18 b 364 79 267 -18 364 46 b 299 283 364 113 299 68 b 307 621 299 360 307 593 b 254 703 307 667 310 703 b 57 618 192 703 57 643 b 113 538 57 593 113 576 b 185 -18 113 183 82 -18 z "},"j":{"ha":389,"x_min":0,"x_max":0,"o":"m 214 483 b 349 618 290 483 349 544 b 214 751 349 693 290 751 b 79 618 139 751 79 693 b 214 483 79 544 139 483 z m 263 453 b 54 358 193 453 54 386 b 119 267 54 292 119 313 b 50 -261 124 93 192 -261 b -131 -92 -25 -261 -82 -92 b -204 -231 -181 -92 -204 -196 b 69 -435 -204 -287 -89 -435 b 333 -185 222 -435 333 -318 b 322 361 333 -67 321 157 b 263 453 322 414 324 453 z "},"k":{"ha":833,"x_min":0,"x_max":0,"o":"m 792 269 b 729 242 778 269 776 242 b 501 399 671 242 550 400 l 490 399 b 683 668 560 472 683 619 b 585 719 683 735 658 725 b 403 658 551 715 403 696 b 447 590 403 614 447 601 b 274 400 447 582 343 468 b 294 717 282 543 294 704 b 238 778 294 749 296 778 b 36 715 175 778 36 733 b 94 656 36 667 94 685 b 144 -18 94 229 54 -18 b 351 54 219 -18 351 29 b 265 206 351 76 283 44 l 265 222 b 364 257 296 239 335 257 b 669 32 408 257 585 32 b 817 246 710 32 817 167 b 792 269 817 251 811 269 z "},"l":{"ha":358,"x_min":0,"x_max":0,"o":"m 144 -46 b 340 51 226 -46 340 18 b 267 256 340 85 267 67 l 267 844 b 214 926 267 890 269 926 b 17 842 151 926 17 867 b 72 761 17 817 72 800 b 144 -46 72 247 42 -46 z "},"m":{"ha":954,"x_min":0,"x_max":0,"o":"m 896 167 b 754 583 896 253 968 583 b 583 454 682 583 617 524 l 582 453 b 438 575 567 522 526 575 b 267 446 365 575 299 519 l 274 504 b 214 594 278 556 275 594 b 18 497 144 594 18 528 b 85 410 18 474 85 454 b 133 0 85 229 35 0 b 311 76 225 0 311 40 b 268 261 311 111 276 100 b 361 419 276 329 308 419 b 403 351 379 419 403 413 b 458 -11 403 157 365 -11 b 633 58 551 -11 633 29 b 579 160 633 76 579 74 b 590 300 579 188 588 240 b 679 425 606 360 636 425 b 721 360 697 425 721 419 b 775 -3 721 163 682 -3 b 940 68 869 -3 940 40 b 896 167 940 88 896 79 z "},"n":{"ha":700,"x_min":0,"x_max":0,"o":"m 617 176 b 464 628 617 272 700 628 b 282 489 386 628 317 565 l 286 550 b 222 647 290 607 288 647 b 11 546 147 647 11 576 b 82 447 11 517 82 496 b 135 4 82 253 29 4 b 328 89 236 4 328 49 b 282 288 328 126 290 114 b 382 458 290 360 325 458 b 426 386 401 458 426 451 b 489 -6 426 175 386 -6 b 676 68 586 -6 676 36 b 617 176 676 88 617 85 z "},"o":{"ha":668,"x_min":0,"x_max":0,"o":"m 660 292 b 358 626 660 458 557 626 b 7 313 33 626 7 368 b 336 -25 7 175 75 -25 b 660 292 601 -25 660 211 z m 351 94 b 251 314 253 94 251 178 b 347 507 251 389 265 507 b 426 304 415 507 426 397 b 351 94 426 192 425 94 z "},"p":{"ha":692,"x_min":0,"x_max":0,"o":"m 429 617 b 258 576 356 617 300 601 b 206 629 257 607 249 629 b 8 544 143 629 8 569 b 64 464 8 519 64 503 b 136 -343 64 -50 33 -343 b 315 -246 218 -343 315 -279 b 250 -42 315 -212 250 -257 l 250 1 b 369 -25 282 -15 321 -25 b 661 339 643 -25 661 265 b 429 617 661 486 604 617 z m 443 318 b 340 107 443 217 406 107 b 264 326 251 107 264 204 b 365 497 264 394 292 497 b 443 318 451 497 443 401 z "},"q":{"ha":749,"x_min":0,"x_max":0,"o":"m 694 -76 b 639 540 501 -76 613 540 b 717 600 682 540 717 560 b 486 685 717 625 549 685 b 435 642 447 685 438 668 b 303 664 400 656 357 664 b 31 363 124 664 31 513 b 322 76 31 289 83 76 b 406 85 354 76 382 79 b 494 -206 407 -74 428 -206 b 694 -76 631 -206 808 -76 z m 308 176 b 218 374 243 176 218 272 b 313 583 218 457 226 583 b 399 382 386 583 399 450 b 308 176 399 260 397 176 z "},"r":{"ha":651,"x_min":0,"x_max":0,"o":"m 643 493 b 463 663 643 586 594 674 b 304 464 351 653 339 539 l 311 524 b 247 621 317 581 313 621 b 39 519 174 621 39 550 b 108 424 39 492 108 469 b 161 -14 108 231 56 -14 b 353 68 258 -14 353 28 b 307 264 353 106 315 93 b 397 510 307 350 339 510 b 421 438 417 510 421 482 b 643 493 421 313 643 307 z "},"s":{"ha":681,"x_min":0,"x_max":0,"o":"m 338 675 b 94 439 113 675 67 528 b 425 165 153 250 425 292 b 247 196 425 115 336 113 b 161 286 201 239 204 286 b 51 124 106 286 51 206 b 351 -29 51 65 128 -29 b 622 197 528 -29 622 71 b 292 503 622 392 292 367 b 399 524 292 547 399 576 b 476 429 399 435 428 429 b 588 525 517 429 589 442 b 338 675 589 585 557 675 z "},"t":{"ha":569,"x_min":0,"x_max":0,"o":"m 569 714 b 388 699 569 760 500 721 l 393 878 b 340 960 393 924 396 960 b 114 875 278 960 114 900 b 182 794 114 850 182 833 l 182 697 b 10 589 86 714 10 733 b 179 583 10 538 50 568 b 242 -12 172 201 154 -12 b 450 85 324 -12 450 51 b 379 294 450 118 379 79 b 385 592 379 365 382 481 b 569 714 510 597 569 619 z "},"u":{"ha":708,"x_min":0,"x_max":0,"o":"m 88 458 b 240 8 88 364 4 8 b 451 163 364 8 417 86 l 436 86 b 482 0 425 29 417 0 b 693 92 557 0 693 60 b 622 189 693 119 622 140 b 569 631 622 383 675 631 b 376 547 469 631 376 588 b 422 349 376 510 414 522 b 322 178 414 276 379 178 b 278 250 303 178 278 185 b 217 642 278 461 318 642 b 28 568 118 642 28 600 b 88 458 28 549 88 551 z "},"v":{"ha":624,"x_min":0,"x_max":0,"o":"m 436 110 b 594 564 467 165 588 476 b 456 619 600 618 538 619 b 363 550 311 617 363 565 b 294 176 360 490 340 178 b 249 574 258 176 254 406 b 163 625 246 601 222 626 b -18 558 104 625 -17 601 b 28 496 -21 515 13 540 b 113 71 69 365 97 179 b 436 110 128 -56 372 -1 z "},"w":{"ha":833,"x_min":0,"x_max":0,"o":"m 744 490 b 624 468 707 490 624 511 b 638 431 624 424 642 443 l 565 246 l 504 400 b 519 449 514 425 519 443 b 401 499 519 500 453 499 b 321 449 349 499 321 486 b 353 410 321 413 347 410 l 282 240 l 233 472 b 101 513 233 503 186 513 b 8 439 25 513 7 481 b 69 389 7 394 32 426 b 154 135 78 372 119 239 b 236 -22 182 51 199 -22 l 311 -22 b 390 101 354 -22 361 -19 b 424 203 397 128 410 164 b 467 93 439 178 453 143 b 513 -17 486 24 486 -17 l 590 -17 b 618 4 600 -17 611 -12 l 761 392 b 799 443 772 410 799 419 b 744 490 799 481 771 490 z "},"x":{"ha":833,"x_min":0,"x_max":0,"o":"m 740 131 b 671 160 729 171 686 160 b 497 288 604 160 549 215 b 682 560 697 494 682 508 b 594 614 682 596 683 614 b 492 549 531 614 492 601 b 407 433 492 536 456 490 b 218 619 346 532 288 619 b 97 560 160 619 97 622 b 142 478 97 503 93 478 b 286 300 161 478 217 396 b 104 104 206 211 126 128 b 143 14 88 85 79 14 l 322 14 b 321 108 340 14 363 108 l 386 174 b 611 8 461 83 543 8 b 714 56 663 1 679 26 b 740 131 750 83 749 104 z "},"y":{"ha":758,"x_min":0,"x_max":0,"o":"m 718 517 b 657 603 717 578 689 603 l 522 603 b 469 511 417 603 438 561 b 354 235 438 439 394 335 b 314 485 335 260 317 322 b 364 538 314 521 358 515 b 293 603 369 563 357 619 b 22 524 65 543 21 582 b 104 436 31 471 104 460 b 290 75 117 90 160 75 b 229 -60 258 -4 235 -60 b 79 18 186 -60 136 18 b 1 -89 24 18 0 -33 b 226 -239 4 -168 100 -239 b 447 -107 308 -239 404 -239 b 668 428 482 -3 640 428 b 718 517 693 428 721 454 z "},"z":{"ha":833,"x_min":0,"x_max":0,"o":"m 681 575 b 706 399 732 575 756 440 l 392 142 b 544 171 426 146 538 119 b 632 265 557 201 560 253 b 740 189 689 265 740 265 l 740 0 b 147 -31 740 -74 383 21 b 121 154 49 -53 100 119 b 451 425 139 182 451 394 b 324 425 451 454 324 510 l 324 383 b 168 303 324 331 243 304 b 182 575 63 304 92 571 b 681 575 375 583 604 575 z "}," ":{"ha":833,"x_min":0,"x_max":0,"o":""}}}
